<mxfile host="app.diagrams.net" modified="2020-09-13T00:33:33.814Z" agent="5.0 (Macintosh; Intel Mac OS X 10_15_6) AppleWebKit/537.36 (KHTML, like Gecko) Chrome/85.0.4183.83 Safari/537.36" etag="QH-egMP1hcdbokvrKpxz" version="13.6.8" type="github" pages="2">
  <diagram id="UAIi6bH5PMwqIdWZizAi" name="Page-1">
    <mxGraphModel dx="1132" dy="642" grid="1" gridSize="10" guides="1" tooltips="1" connect="1" arrows="1" fold="1" page="1" pageScale="1" pageWidth="850" pageHeight="1100" math="0" shadow="0">
      <root>
        <mxCell id="0" />
        <mxCell id="1" parent="0" />
        <mxCell id="rKwM3at-qu2hx9PtTfh6-9" value="&lt;b&gt;curriculum&lt;/b&gt;" style="whiteSpace=wrap;html=1;strokeColor=#000000;fillColor=#CCCCCC;" parent="1" vertex="1">
          <mxGeometry x="60" y="600" width="175" height="40" as="geometry" />
        </mxCell>
        <mxCell id="rKwM3at-qu2hx9PtTfh6-12" value="&lt;b&gt;CLA_CODE&lt;br&gt;STU_ID&lt;br&gt;PRO_CODE&lt;/b&gt;" style="whiteSpace=wrap;html=1;" parent="1" vertex="1">
          <mxGeometry x="120" y="640" width="115" height="40" as="geometry" />
        </mxCell>
        <mxCell id="rKwM3at-qu2hx9PtTfh6-15" value="&lt;b&gt;PK,FK1&lt;br&gt;PK,FK2&lt;br&gt;PK,FK3&lt;br&gt;&lt;/b&gt;" style="whiteSpace=wrap;html=1;strokeColor=#000000;fillColor=#FFFFFF;" parent="1" vertex="1">
          <mxGeometry x="60" y="640" width="60" height="40" as="geometry" />
        </mxCell>
        <mxCell id="rKwM3at-qu2hx9PtTfh6-18" value="&lt;b&gt;curriculum fee&lt;br&gt;start time&lt;br&gt;end time&lt;/b&gt;" style="whiteSpace=wrap;html=1;strokeColor=#000000;fillColor=#FFFFFF;" parent="1" vertex="1">
          <mxGeometry x="120" y="680" width="115" height="40" as="geometry" />
        </mxCell>
        <mxCell id="rKwM3at-qu2hx9PtTfh6-32" value="" style="fontSize=12;html=1;endArrow=ERzeroToMany;startArrow=ERmandOne;entryX=0.48;entryY=1.082;entryDx=0;entryDy=0;entryPerimeter=0;" parent="1" edge="1">
          <mxGeometry width="100" height="100" relative="1" as="geometry">
            <mxPoint x="197" y="210" as="sourcePoint" />
            <mxPoint x="189" y="160" as="targetPoint" />
            <Array as="points" />
          </mxGeometry>
        </mxCell>
        <mxCell id="m1BjPsNtlQlM0CQCzWrV-3" value="has" style="text;html=1;align=center;verticalAlign=middle;resizable=0;points=[];autosize=1;" parent="1" vertex="1">
          <mxGeometry x="300" y="640" width="30" height="20" as="geometry" />
        </mxCell>
        <mxCell id="a4JJQ3hbmo9ORdKB5tDZ-102" value="rate system" style="shape=table;startSize=30;container=1;collapsible=1;childLayout=tableLayout;fixedRows=1;rowLines=0;fontStyle=1;align=center;resizeLast=1;fillColor=#CCCCCC;" parent="1" vertex="1">
          <mxGeometry x="62.5" y="80" width="170" height="160" as="geometry" />
        </mxCell>
        <mxCell id="a4JJQ3hbmo9ORdKB5tDZ-103" value="" style="shape=partialRectangle;collapsible=0;dropTarget=0;pointerEvents=0;fillColor=none;top=0;left=0;bottom=1;right=0;points=[[0,0.5],[1,0.5]];portConstraint=eastwest;" parent="a4JJQ3hbmo9ORdKB5tDZ-102" vertex="1">
          <mxGeometry y="30" width="170" height="30" as="geometry" />
        </mxCell>
        <mxCell id="a4JJQ3hbmo9ORdKB5tDZ-104" value="PK" style="shape=partialRectangle;connectable=0;fillColor=none;top=0;left=0;bottom=0;right=0;fontStyle=1;overflow=hidden;" parent="a4JJQ3hbmo9ORdKB5tDZ-103" vertex="1">
          <mxGeometry width="30" height="30" as="geometry" />
        </mxCell>
        <mxCell id="a4JJQ3hbmo9ORdKB5tDZ-105" value="RATE_CODE" style="shape=partialRectangle;connectable=0;fillColor=none;top=0;left=0;bottom=0;right=0;align=left;spacingLeft=6;fontStyle=5;overflow=hidden;" parent="a4JJQ3hbmo9ORdKB5tDZ-103" vertex="1">
          <mxGeometry x="30" width="140" height="30" as="geometry" />
        </mxCell>
        <mxCell id="a4JJQ3hbmo9ORdKB5tDZ-123" style="shape=partialRectangle;collapsible=0;dropTarget=0;pointerEvents=0;fillColor=none;top=0;left=0;bottom=0;right=0;points=[[0,0.5],[1,0.5]];portConstraint=eastwest;" parent="a4JJQ3hbmo9ORdKB5tDZ-102" vertex="1">
          <mxGeometry y="60" width="170" height="20" as="geometry" />
        </mxCell>
        <mxCell id="a4JJQ3hbmo9ORdKB5tDZ-124" style="shape=partialRectangle;connectable=0;fillColor=none;top=0;left=0;bottom=0;right=0;editable=1;overflow=hidden;fontStyle=1;" parent="a4JJQ3hbmo9ORdKB5tDZ-123" vertex="1">
          <mxGeometry width="30" height="20" as="geometry" />
        </mxCell>
        <mxCell id="a4JJQ3hbmo9ORdKB5tDZ-125" value="score" style="shape=partialRectangle;connectable=0;fillColor=none;top=0;left=0;bottom=0;right=0;align=left;spacingLeft=6;overflow=hidden;fontStyle=1;" parent="a4JJQ3hbmo9ORdKB5tDZ-123" vertex="1">
          <mxGeometry x="30" width="140" height="20" as="geometry" />
        </mxCell>
        <mxCell id="a4JJQ3hbmo9ORdKB5tDZ-106" value="" style="shape=partialRectangle;collapsible=0;dropTarget=0;pointerEvents=0;fillColor=none;top=0;left=0;bottom=0;right=0;points=[[0,0.5],[1,0.5]];portConstraint=eastwest;" parent="a4JJQ3hbmo9ORdKB5tDZ-102" vertex="1">
          <mxGeometry y="80" width="170" height="20" as="geometry" />
        </mxCell>
        <mxCell id="a4JJQ3hbmo9ORdKB5tDZ-107" value="FK" style="shape=partialRectangle;connectable=0;fillColor=none;top=0;left=0;bottom=0;right=0;editable=1;overflow=hidden;fontStyle=1;" parent="a4JJQ3hbmo9ORdKB5tDZ-106" vertex="1">
          <mxGeometry width="30" height="20" as="geometry" />
        </mxCell>
        <mxCell id="a4JJQ3hbmo9ORdKB5tDZ-108" value="STU_ID" style="shape=partialRectangle;connectable=0;fillColor=none;top=0;left=0;bottom=0;right=0;align=left;spacingLeft=6;overflow=hidden;fontStyle=1;" parent="a4JJQ3hbmo9ORdKB5tDZ-106" vertex="1">
          <mxGeometry x="30" width="140" height="20" as="geometry" />
        </mxCell>
        <mxCell id="a4JJQ3hbmo9ORdKB5tDZ-109" value="" style="shape=partialRectangle;collapsible=0;dropTarget=0;pointerEvents=0;fillColor=none;top=0;left=0;bottom=0;right=0;points=[[0,0.5],[1,0.5]];portConstraint=eastwest;" parent="a4JJQ3hbmo9ORdKB5tDZ-102" vertex="1">
          <mxGeometry y="100" width="170" height="20" as="geometry" />
        </mxCell>
        <mxCell id="a4JJQ3hbmo9ORdKB5tDZ-110" value="FK" style="shape=partialRectangle;connectable=0;fillColor=none;top=0;left=0;bottom=0;right=0;editable=1;overflow=hidden;fontStyle=1;" parent="a4JJQ3hbmo9ORdKB5tDZ-109" vertex="1">
          <mxGeometry width="30" height="20" as="geometry" />
        </mxCell>
        <mxCell id="a4JJQ3hbmo9ORdKB5tDZ-111" value="professor_name" style="shape=partialRectangle;connectable=0;fillColor=none;top=0;left=0;bottom=0;right=0;align=left;spacingLeft=6;overflow=hidden;fontStyle=1;" parent="a4JJQ3hbmo9ORdKB5tDZ-109" vertex="1">
          <mxGeometry x="30" width="140" height="20" as="geometry" />
        </mxCell>
        <mxCell id="a4JJQ3hbmo9ORdKB5tDZ-115" style="shape=partialRectangle;collapsible=0;dropTarget=0;pointerEvents=0;fillColor=none;top=0;left=0;bottom=0;right=0;points=[[0,0.5],[1,0.5]];portConstraint=eastwest;" parent="a4JJQ3hbmo9ORdKB5tDZ-102" vertex="1">
          <mxGeometry y="120" width="170" height="20" as="geometry" />
        </mxCell>
        <mxCell id="a4JJQ3hbmo9ORdKB5tDZ-116" value="FK" style="shape=partialRectangle;connectable=0;fillColor=none;top=0;left=0;bottom=0;right=0;editable=1;overflow=hidden;fontStyle=1;" parent="a4JJQ3hbmo9ORdKB5tDZ-115" vertex="1">
          <mxGeometry width="30" height="20" as="geometry" />
        </mxCell>
        <mxCell id="a4JJQ3hbmo9ORdKB5tDZ-117" value="PRO_CODE" style="shape=partialRectangle;connectable=0;fillColor=none;top=0;left=0;bottom=0;right=0;align=left;spacingLeft=6;overflow=hidden;fontStyle=1;" parent="a4JJQ3hbmo9ORdKB5tDZ-115" vertex="1">
          <mxGeometry x="30" width="140" height="20" as="geometry" />
        </mxCell>
        <mxCell id="a4JJQ3hbmo9ORdKB5tDZ-112" value="" style="shape=partialRectangle;collapsible=0;dropTarget=0;pointerEvents=0;fillColor=none;top=0;left=0;bottom=0;right=0;points=[[0,0.5],[1,0.5]];portConstraint=eastwest;" parent="a4JJQ3hbmo9ORdKB5tDZ-102" vertex="1">
          <mxGeometry y="140" width="170" height="20" as="geometry" />
        </mxCell>
        <mxCell id="a4JJQ3hbmo9ORdKB5tDZ-113" value="FK" style="shape=partialRectangle;connectable=0;fillColor=none;top=0;left=0;bottom=0;right=0;editable=1;overflow=hidden;fontStyle=1;" parent="a4JJQ3hbmo9ORdKB5tDZ-112" vertex="1">
          <mxGeometry width="30" height="20" as="geometry" />
        </mxCell>
        <mxCell id="a4JJQ3hbmo9ORdKB5tDZ-114" value="CLA_CODE" style="shape=partialRectangle;connectable=0;fillColor=none;top=0;left=0;bottom=0;right=0;align=left;spacingLeft=6;overflow=hidden;fontStyle=1;" parent="a4JJQ3hbmo9ORdKB5tDZ-112" vertex="1">
          <mxGeometry x="30" width="140" height="20" as="geometry" />
        </mxCell>
        <mxCell id="m1BjPsNtlQlM0CQCzWrV-6" value="has" style="text;html=1;align=center;verticalAlign=middle;resizable=0;points=[];autosize=1;" parent="1" vertex="1">
          <mxGeometry x="155" y="740" width="30" height="20" as="geometry" />
        </mxCell>
        <mxCell id="m1BjPsNtlQlM0CQCzWrV-8" value="" style="whiteSpace=wrap;html=1;" parent="1" vertex="1">
          <mxGeometry x="60" y="680" width="60" height="40" as="geometry" />
        </mxCell>
        <mxCell id="m1BjPsNtlQlM0CQCzWrV-10" value="is enrolled to" style="text;html=1;align=center;verticalAlign=middle;resizable=0;points=[];autosize=1;" parent="1" vertex="1">
          <mxGeometry x="155" y="560" width="80" height="20" as="geometry" />
        </mxCell>
        <mxCell id="m1BjPsNtlQlM0CQCzWrV-11" value="" style="edgeStyle=entityRelationEdgeStyle;fontSize=12;html=1;endArrow=ERoneToMany;endFill=0;startArrow=ERzeroToMany;" parent="1" edge="1">
          <mxGeometry width="100" height="100" relative="1" as="geometry">
            <mxPoint x="235" y="670" as="sourcePoint" />
            <mxPoint x="345" y="670" as="targetPoint" />
          </mxGeometry>
        </mxCell>
        <mxCell id="m1BjPsNtlQlM0CQCzWrV-12" value="" style="fontSize=12;html=1;endArrow=ERzeroToMany;endFill=1;startArrow=ERoneToMany;entryX=0.25;entryY=1;entryDx=0;entryDy=0;startFill=0;" parent="1" target="rKwM3at-qu2hx9PtTfh6-18" edge="1">
          <mxGeometry width="100" height="100" relative="1" as="geometry">
            <mxPoint x="149" y="766" as="sourcePoint" />
            <mxPoint x="164" y="740" as="targetPoint" />
            <Array as="points" />
          </mxGeometry>
        </mxCell>
        <mxCell id="m1BjPsNtlQlM0CQCzWrV-224" value="" style="fontSize=12;html=1;endArrow=ERzeroToMany;endFill=1;startArrow=ERzeroToMany;dashed=1;entryX=0.5;entryY=1;entryDx=0;entryDy=0;entryPerimeter=0;" parent="1" edge="1">
          <mxGeometry width="100" height="100" relative="1" as="geometry">
            <mxPoint x="460" y="420" as="sourcePoint" />
            <mxPoint x="479.54" y="420" as="targetPoint" />
            <Array as="points" />
          </mxGeometry>
        </mxCell>
        <mxCell id="m1BjPsNtlQlM0CQCzWrV-225" value="" style="edgeStyle=entityRelationEdgeStyle;fontSize=12;html=1;endArrow=ERoneToMany;endFill=0;startArrow=ERzeroToMany;dashed=1;entryX=-0.004;entryY=-0.071;entryDx=0;entryDy=0;entryPerimeter=0;" parent="1" target="m1BjPsNtlQlM0CQCzWrV-195" edge="1">
          <mxGeometry width="100" height="100" relative="1" as="geometry">
            <mxPoint x="237" y="889" as="sourcePoint" />
            <mxPoint x="345" y="920" as="targetPoint" />
          </mxGeometry>
        </mxCell>
        <mxCell id="m1BjPsNtlQlM0CQCzWrV-226" value="teach" style="text;html=1;align=center;verticalAlign=middle;resizable=0;points=[];autosize=1;" parent="1" vertex="1">
          <mxGeometry x="425" y="780" width="40" height="20" as="geometry" />
        </mxCell>
        <mxCell id="m1BjPsNtlQlM0CQCzWrV-227" value="oversee" style="text;html=1;align=center;verticalAlign=middle;resizable=0;points=[];autosize=1;" parent="1" vertex="1">
          <mxGeometry x="240" y="870" width="60" height="20" as="geometry" />
        </mxCell>
        <mxCell id="m1BjPsNtlQlM0CQCzWrV-228" value="" style="edgeStyle=entityRelationEdgeStyle;fontSize=12;html=1;endArrow=ERzeroToMany;endFill=1;startArrow=ERzeroToMany;dashed=1;exitX=1;exitY=0.5;exitDx=0;exitDy=0;entryX=0;entryY=0.5;entryDx=0;entryDy=0;" parent="1" source="m1BjPsNtlQlM0CQCzWrV-192" target="m1BjPsNtlQlM0CQCzWrV-214" edge="1">
          <mxGeometry width="100" height="100" relative="1" as="geometry">
            <mxPoint x="525" y="885" as="sourcePoint" />
            <mxPoint x="575" y="707" as="targetPoint" />
          </mxGeometry>
        </mxCell>
        <mxCell id="m1BjPsNtlQlM0CQCzWrV-229" value="use" style="text;html=1;align=center;verticalAlign=middle;resizable=0;points=[];autosize=1;" parent="1" vertex="1">
          <mxGeometry x="515" y="780" width="30" height="20" as="geometry" />
        </mxCell>
        <mxCell id="m1BjPsNtlQlM0CQCzWrV-286" value="" style="fontSize=12;html=1;endArrow=ERzeroToMany;endFill=1;startArrow=ERzeroToMany;entryX=0.491;entryY=1.13;entryDx=0;entryDy=0;dashed=1;entryPerimeter=0;" parent="1" target="a4JJQ3hbmo9ORdKB5tDZ-33" edge="1">
          <mxGeometry width="100" height="100" relative="1" as="geometry">
            <mxPoint x="415" y="810" as="sourcePoint" />
            <mxPoint x="414.58000000000004" y="740" as="targetPoint" />
            <Array as="points" />
          </mxGeometry>
        </mxCell>
        <mxCell id="m1BjPsNtlQlM0CQCzWrV-287" value="" style="edgeStyle=entityRelationEdgeStyle;fontSize=12;html=1;endArrow=ERoneToMany;startArrow=ERmandOne;" parent="1" edge="1">
          <mxGeometry width="100" height="100" relative="1" as="geometry">
            <mxPoint x="525" y="900" as="sourcePoint" />
            <mxPoint x="610" y="900" as="targetPoint" />
          </mxGeometry>
        </mxCell>
        <mxCell id="m1BjPsNtlQlM0CQCzWrV-288" value="pay for" style="text;html=1;align=center;verticalAlign=middle;resizable=0;points=[];autosize=1;" parent="1" vertex="1">
          <mxGeometry x="540" y="920" width="50" height="20" as="geometry" />
        </mxCell>
        <mxCell id="m1BjPsNtlQlM0CQCzWrV-306" value="" style="edgeStyle=entityRelationEdgeStyle;fontSize=12;html=1;endArrow=ERoneToMany;endFill=0;startArrow=ERzeroToMany;dashed=1;exitX=0.999;exitY=-0.04;exitDx=0;exitDy=0;exitPerimeter=0;" parent="1" source="rKwM3at-qu2hx9PtTfh6-37" edge="1">
          <mxGeometry width="100" height="100" relative="1" as="geometry">
            <mxPoint x="227.48000000000002" y="494.5799999999999" as="sourcePoint" />
            <mxPoint x="300" y="495" as="targetPoint" />
          </mxGeometry>
        </mxCell>
        <mxCell id="m1BjPsNtlQlM0CQCzWrV-307" value="be arranged" style="text;html=1;align=center;verticalAlign=middle;resizable=0;points=[];autosize=1;" parent="1" vertex="1">
          <mxGeometry x="210" y="470" width="80" height="20" as="geometry" />
        </mxCell>
        <mxCell id="m1BjPsNtlQlM0CQCzWrV-308" value="" style="edgeStyle=elbowEdgeStyle;fontSize=12;html=1;endArrow=ERoneToMany;startArrow=ERmandOne;entryX=0;entryY=0.5;entryDx=0;entryDy=0;startSize=6;strokeWidth=1;endSize=7;targetPerimeterSpacing=0;sourcePerimeterSpacing=0;jumpSize=7;exitX=1;exitY=0.733;exitDx=0;exitDy=0;exitPerimeter=0;endFill=0;" parent="1" source="rKwM3at-qu2hx9PtTfh6-60" target="m1BjPsNtlQlM0CQCzWrV-290" edge="1">
          <mxGeometry width="100" height="100" relative="1" as="geometry">
            <mxPoint x="245" y="832" as="sourcePoint" />
            <mxPoint x="495" y="650" as="targetPoint" />
          </mxGeometry>
        </mxCell>
        <mxCell id="m1BjPsNtlQlM0CQCzWrV-309" value="has" style="text;html=1;align=center;verticalAlign=middle;resizable=0;points=[];autosize=1;" parent="1" vertex="1">
          <mxGeometry x="245" y="810" width="30" height="20" as="geometry" />
        </mxCell>
        <mxCell id="m1BjPsNtlQlM0CQCzWrV-323" value="" style="fontSize=12;html=1;endArrow=ERmandOne;startArrow=ERmandOne;strokeWidth=1;dashed=1;" parent="1" edge="1">
          <mxGeometry width="100" height="100" relative="1" as="geometry">
            <mxPoint x="435" y="459.6" as="sourcePoint" />
            <mxPoint x="490" y="460" as="targetPoint" />
          </mxGeometry>
        </mxCell>
        <mxCell id="m1BjPsNtlQlM0CQCzWrV-333" value="" style="fontSize=12;html=1;endArrow=ERzeroToMany;startArrow=ERmandOne;strokeWidth=1;exitX=0.54;exitY=-0.058;exitDx=0;exitDy=0;exitPerimeter=0;" parent="1" source="rKwM3at-qu2hx9PtTfh6-9" edge="1">
          <mxGeometry width="100" height="100" relative="1" as="geometry">
            <mxPoint x="155" y="585" as="sourcePoint" />
            <mxPoint x="155" y="525" as="targetPoint" />
            <Array as="points">
              <mxPoint x="155" y="555" />
            </Array>
          </mxGeometry>
        </mxCell>
        <mxCell id="a4JJQ3hbmo9ORdKB5tDZ-15" value="" style="fontSize=12;html=1;endArrow=ERoneToMany;endFill=0;startArrow=ERzeroToMany;strokeWidth=1;dashed=1;" parent="1" edge="1">
          <mxGeometry width="100" height="100" relative="1" as="geometry">
            <mxPoint x="637.5" y="470" as="sourcePoint" />
            <mxPoint x="700" y="470" as="targetPoint" />
          </mxGeometry>
        </mxCell>
        <mxCell id="a4JJQ3hbmo9ORdKB5tDZ-29" value="" style="fontSize=12;html=1;endArrow=ERoneToMany;startArrow=ERmandOne;dashed=1;strokeWidth=1;exitX=1;exitY=0.5;exitDx=0;exitDy=0;entryX=0;entryY=0.5;entryDx=0;entryDy=0;" parent="1" source="rKwM3at-qu2hx9PtTfh6-73" target="m1BjPsNtlQlM0CQCzWrV-211" edge="1">
          <mxGeometry width="100" height="100" relative="1" as="geometry">
            <mxPoint x="510" y="810" as="sourcePoint" />
            <mxPoint x="575" y="695" as="targetPoint" />
          </mxGeometry>
        </mxCell>
        <mxCell id="a4JJQ3hbmo9ORdKB5tDZ-36" value="" style="fontSize=12;html=1;endArrow=ERzeroToMany;startArrow=ERmandOne;dashed=1;strokeWidth=1;entryX=0.5;entryY=1;entryDx=0;entryDy=0;" parent="1" target="rKwM3at-qu2hx9PtTfh6-59" edge="1">
          <mxGeometry width="100" height="100" relative="1" as="geometry">
            <mxPoint x="155" y="960" as="sourcePoint" />
            <mxPoint x="255" y="910" as="targetPoint" />
          </mxGeometry>
        </mxCell>
        <mxCell id="a4JJQ3hbmo9ORdKB5tDZ-37" value="" style="fontSize=12;html=1;endArrow=ERzeroToMany;startArrow=ERmandOne;dashed=1;strokeWidth=1;edgeStyle=elbowEdgeStyle;exitX=1.009;exitY=0.687;exitDx=0;exitDy=0;exitPerimeter=0;entryX=0;entryY=0.5;entryDx=0;entryDy=0;" parent="1" source="a4JJQ3hbmo9ORdKB5tDZ-17" target="a4JJQ3hbmo9ORdKB5tDZ-33" edge="1">
          <mxGeometry width="100" height="100" relative="1" as="geometry">
            <mxPoint x="300" y="1090" as="sourcePoint" />
            <mxPoint x="340" y="750" as="targetPoint" />
          </mxGeometry>
        </mxCell>
        <mxCell id="a4JJQ3hbmo9ORdKB5tDZ-38" value="is used for" style="text;html=1;align=center;verticalAlign=middle;resizable=0;points=[];autosize=1;" parent="1" vertex="1">
          <mxGeometry x="165" y="930" width="70" height="20" as="geometry" />
        </mxCell>
        <mxCell id="a4JJQ3hbmo9ORdKB5tDZ-39" value="is used for" style="text;html=1;align=center;verticalAlign=middle;resizable=0;points=[];autosize=1;" parent="1" vertex="1">
          <mxGeometry x="310" y="970" width="70" height="20" as="geometry" />
        </mxCell>
        <mxCell id="a4JJQ3hbmo9ORdKB5tDZ-40" value="has" style="text;html=1;align=center;verticalAlign=middle;resizable=0;points=[];autosize=1;" parent="1" vertex="1">
          <mxGeometry x="445" y="440" width="30" height="20" as="geometry" />
        </mxCell>
        <mxCell id="a4JJQ3hbmo9ORdKB5tDZ-41" value="supplied" style="text;html=1;align=center;verticalAlign=middle;resizable=0;points=[];autosize=1;" parent="1" vertex="1">
          <mxGeometry x="640" y="450" width="60" height="20" as="geometry" />
        </mxCell>
        <mxCell id="a4JJQ3hbmo9ORdKB5tDZ-42" value="uses" style="text;html=1;align=center;verticalAlign=middle;resizable=0;points=[];autosize=1;" parent="1" vertex="1">
          <mxGeometry x="510" y="640" width="40" height="20" as="geometry" />
        </mxCell>
        <mxCell id="a4JJQ3hbmo9ORdKB5tDZ-57" value="" style="fontSize=12;html=1;endArrow=ERmandOne;startArrow=ERmandOne;strokeWidth=1;entryX=0.5;entryY=1;entryDx=0;entryDy=0;" parent="1" target="a4JJQ3hbmo9ORdKB5tDZ-43" edge="1">
          <mxGeometry width="100" height="100" relative="1" as="geometry">
            <mxPoint x="130" y="435" as="sourcePoint" />
            <mxPoint x="290" y="320" as="targetPoint" />
          </mxGeometry>
        </mxCell>
        <mxCell id="a4JJQ3hbmo9ORdKB5tDZ-58" value="for" style="text;html=1;align=center;verticalAlign=middle;resizable=0;points=[];autosize=1;" parent="1" vertex="1">
          <mxGeometry x="132.5" y="410" width="30" height="20" as="geometry" />
        </mxCell>
        <mxCell id="a4JJQ3hbmo9ORdKB5tDZ-60" value="" style="edgeStyle=elbowEdgeStyle;fontSize=12;html=1;endArrow=ERzeroToMany;endFill=1;startArrow=ERzeroToMany;strokeWidth=1;dashed=1;entryX=0;entryY=0.5;entryDx=0;entryDy=0;exitX=0;exitY=0.5;exitDx=0;exitDy=0;" parent="1" source="a4JJQ3hbmo9ORdKB5tDZ-17" target="a4JJQ3hbmo9ORdKB5tDZ-47" edge="1">
          <mxGeometry width="100" height="100" relative="1" as="geometry">
            <mxPoint x="250" y="1040" as="sourcePoint" />
            <mxPoint x="60" y="360" as="targetPoint" />
            <Array as="points">
              <mxPoint x="40" y="440" />
            </Array>
          </mxGeometry>
        </mxCell>
        <mxCell id="a4JJQ3hbmo9ORdKB5tDZ-62" value="records" style="text;html=1;align=center;verticalAlign=middle;resizable=0;points=[];autosize=1;" parent="1" vertex="1">
          <mxGeometry x="30" y="570" width="60" height="20" as="geometry" />
        </mxCell>
        <mxCell id="a4JJQ3hbmo9ORdKB5tDZ-92" value="" style="fontSize=12;html=1;endArrow=ERzeroToMany;startArrow=ERmandOne;dashed=1;strokeWidth=1;" parent="1" edge="1">
          <mxGeometry width="100" height="100" relative="1" as="geometry">
            <mxPoint x="455" y="317" as="sourcePoint" />
            <mxPoint x="528" y="317" as="targetPoint" />
          </mxGeometry>
        </mxCell>
        <mxCell id="a4JJQ3hbmo9ORdKB5tDZ-93" value="" style="edgeStyle=elbowEdgeStyle;fontSize=12;html=1;endArrow=ERzeroToMany;startArrow=ERmandOne;dashed=1;strokeWidth=1;exitX=0;exitY=0.5;exitDx=0;exitDy=0;" parent="1" source="a4JJQ3hbmo9ORdKB5tDZ-64" target="rKwM3at-qu2hx9PtTfh6-34" edge="1">
          <mxGeometry width="100" height="100" relative="1" as="geometry">
            <mxPoint x="195" y="400" as="sourcePoint" />
            <mxPoint x="207" y="470" as="targetPoint" />
          </mxGeometry>
        </mxCell>
        <mxCell id="a4JJQ3hbmo9ORdKB5tDZ-94" value="contains" style="text;html=1;align=center;verticalAlign=middle;resizable=0;points=[];autosize=1;" parent="1" vertex="1">
          <mxGeometry x="460" y="290" width="60" height="20" as="geometry" />
        </mxCell>
        <mxCell id="a4JJQ3hbmo9ORdKB5tDZ-95" value="uses" style="text;html=1;align=center;verticalAlign=middle;resizable=0;points=[];autosize=1;" parent="1" vertex="1">
          <mxGeometry x="230" y="390" width="40" height="20" as="geometry" />
        </mxCell>
        <mxCell id="a4JJQ3hbmo9ORdKB5tDZ-118" value="" style="edgeStyle=elbowEdgeStyle;fontSize=12;html=1;endArrow=ERmandOne;startArrow=ERmandOne;dashed=1;strokeWidth=1;exitX=0;exitY=0.167;exitDx=0;exitDy=0;exitPerimeter=0;" parent="1" source="rKwM3at-qu2hx9PtTfh6-37" edge="1">
          <mxGeometry width="100" height="100" relative="1" as="geometry">
            <mxPoint x="-40" y="250" as="sourcePoint" />
            <mxPoint x="60" y="160" as="targetPoint" />
            <Array as="points">
              <mxPoint x="20" y="240" />
            </Array>
          </mxGeometry>
        </mxCell>
        <mxCell id="a4JJQ3hbmo9ORdKB5tDZ-119" value="rates" style="text;html=1;align=center;verticalAlign=middle;resizable=0;points=[];autosize=1;" parent="1" vertex="1">
          <mxGeometry x="20" y="140" width="40" height="20" as="geometry" />
        </mxCell>
        <mxCell id="a4JJQ3hbmo9ORdKB5tDZ-43" value="time schedule" style="shape=table;startSize=30;container=1;collapsible=1;childLayout=tableLayout;fixedRows=1;rowLines=0;fontStyle=1;align=center;resizeLast=1;fillColor=#CCCCCC;" parent="1" vertex="1">
          <mxGeometry x="60" y="270" width="140" height="130" as="geometry" />
        </mxCell>
        <mxCell id="a4JJQ3hbmo9ORdKB5tDZ-44" value="" style="shape=partialRectangle;collapsible=0;dropTarget=0;pointerEvents=0;fillColor=none;top=0;left=0;bottom=1;right=0;points=[[0,0.5],[1,0.5]];portConstraint=eastwest;" parent="a4JJQ3hbmo9ORdKB5tDZ-43" vertex="1">
          <mxGeometry y="30" width="140" height="30" as="geometry" />
        </mxCell>
        <mxCell id="a4JJQ3hbmo9ORdKB5tDZ-45" value="PK,FK" style="shape=partialRectangle;connectable=0;fillColor=none;top=0;left=0;bottom=0;right=0;fontStyle=1;overflow=hidden;" parent="a4JJQ3hbmo9ORdKB5tDZ-44" vertex="1">
          <mxGeometry width="40" height="30" as="geometry" />
        </mxCell>
        <mxCell id="a4JJQ3hbmo9ORdKB5tDZ-46" value="STU_ID" style="shape=partialRectangle;connectable=0;fillColor=none;top=0;left=0;bottom=0;right=0;align=left;spacingLeft=6;fontStyle=5;overflow=hidden;" parent="a4JJQ3hbmo9ORdKB5tDZ-44" vertex="1">
          <mxGeometry x="40" width="100" height="30" as="geometry" />
        </mxCell>
        <mxCell id="a4JJQ3hbmo9ORdKB5tDZ-47" value="" style="shape=partialRectangle;collapsible=0;dropTarget=0;pointerEvents=0;fillColor=none;top=0;left=0;bottom=0;right=0;points=[[0,0.5],[1,0.5]];portConstraint=eastwest;" parent="a4JJQ3hbmo9ORdKB5tDZ-43" vertex="1">
          <mxGeometry y="60" width="140" height="30" as="geometry" />
        </mxCell>
        <mxCell id="a4JJQ3hbmo9ORdKB5tDZ-48" value="FK" style="shape=partialRectangle;connectable=0;fillColor=none;top=0;left=0;bottom=0;right=0;editable=1;overflow=hidden;fontStyle=1;" parent="a4JJQ3hbmo9ORdKB5tDZ-47" vertex="1">
          <mxGeometry width="40" height="30" as="geometry" />
        </mxCell>
        <mxCell id="a4JJQ3hbmo9ORdKB5tDZ-49" value="ROOM_CODE" style="shape=partialRectangle;connectable=0;fillColor=none;top=0;left=0;bottom=0;right=0;align=left;spacingLeft=6;overflow=hidden;fontStyle=1;" parent="a4JJQ3hbmo9ORdKB5tDZ-47" vertex="1">
          <mxGeometry x="40" width="100" height="30" as="geometry" />
        </mxCell>
        <mxCell id="a4JJQ3hbmo9ORdKB5tDZ-50" value="" style="shape=partialRectangle;collapsible=0;dropTarget=0;pointerEvents=0;fillColor=none;top=0;left=0;bottom=0;right=0;points=[[0,0.5],[1,0.5]];portConstraint=eastwest;" parent="a4JJQ3hbmo9ORdKB5tDZ-43" vertex="1">
          <mxGeometry y="90" width="140" height="20" as="geometry" />
        </mxCell>
        <mxCell id="a4JJQ3hbmo9ORdKB5tDZ-51" value="" style="shape=partialRectangle;connectable=0;fillColor=none;top=0;left=0;bottom=0;right=0;editable=1;overflow=hidden;" parent="a4JJQ3hbmo9ORdKB5tDZ-50" vertex="1">
          <mxGeometry width="40" height="20" as="geometry" />
        </mxCell>
        <mxCell id="a4JJQ3hbmo9ORdKB5tDZ-52" value="class time" style="shape=partialRectangle;connectable=0;fillColor=none;top=0;left=0;bottom=0;right=0;align=left;spacingLeft=6;overflow=hidden;fontStyle=1;" parent="a4JJQ3hbmo9ORdKB5tDZ-50" vertex="1">
          <mxGeometry x="40" width="100" height="20" as="geometry" />
        </mxCell>
        <mxCell id="a4JJQ3hbmo9ORdKB5tDZ-53" value="" style="shape=partialRectangle;collapsible=0;dropTarget=0;pointerEvents=0;fillColor=none;top=0;left=0;bottom=0;right=0;points=[[0,0.5],[1,0.5]];portConstraint=eastwest;" parent="a4JJQ3hbmo9ORdKB5tDZ-43" vertex="1">
          <mxGeometry y="110" width="140" height="20" as="geometry" />
        </mxCell>
        <mxCell id="a4JJQ3hbmo9ORdKB5tDZ-54" value="" style="shape=partialRectangle;connectable=0;fillColor=none;top=0;left=0;bottom=0;right=0;editable=1;overflow=hidden;" parent="a4JJQ3hbmo9ORdKB5tDZ-53" vertex="1">
          <mxGeometry width="40" height="20" as="geometry" />
        </mxCell>
        <mxCell id="a4JJQ3hbmo9ORdKB5tDZ-55" value="project time" style="shape=partialRectangle;connectable=0;fillColor=none;top=0;left=0;bottom=0;right=0;align=left;spacingLeft=6;overflow=hidden;fontStyle=1;" parent="a4JJQ3hbmo9ORdKB5tDZ-53" vertex="1">
          <mxGeometry x="40" width="100" height="20" as="geometry" />
        </mxCell>
        <mxCell id="a4JJQ3hbmo9ORdKB5tDZ-63" value="library" style="shape=table;startSize=30;container=1;collapsible=1;childLayout=tableLayout;fixedRows=1;rowLines=0;fontStyle=1;align=center;resizeLast=1;fillColor=#CCCCCC;" parent="1" vertex="1">
          <mxGeometry x="275" y="270" width="180" height="110" as="geometry" />
        </mxCell>
        <mxCell id="a4JJQ3hbmo9ORdKB5tDZ-64" value="" style="shape=partialRectangle;collapsible=0;dropTarget=0;pointerEvents=0;fillColor=none;top=0;left=0;bottom=1;right=0;points=[[0,0.5],[1,0.5]];portConstraint=eastwest;" parent="a4JJQ3hbmo9ORdKB5tDZ-63" vertex="1">
          <mxGeometry y="30" width="180" height="30" as="geometry" />
        </mxCell>
        <mxCell id="a4JJQ3hbmo9ORdKB5tDZ-65" value="PK" style="shape=partialRectangle;connectable=0;fillColor=none;top=0;left=0;bottom=0;right=0;fontStyle=1;overflow=hidden;" parent="a4JJQ3hbmo9ORdKB5tDZ-64" vertex="1">
          <mxGeometry width="30" height="30" as="geometry" />
        </mxCell>
        <mxCell id="a4JJQ3hbmo9ORdKB5tDZ-66" value="LIB_name" style="shape=partialRectangle;connectable=0;fillColor=none;top=0;left=0;bottom=0;right=0;align=left;spacingLeft=6;fontStyle=5;overflow=hidden;" parent="a4JJQ3hbmo9ORdKB5tDZ-64" vertex="1">
          <mxGeometry x="30" width="150" height="30" as="geometry" />
        </mxCell>
        <mxCell id="a4JJQ3hbmo9ORdKB5tDZ-70" value="" style="shape=partialRectangle;collapsible=0;dropTarget=0;pointerEvents=0;fillColor=none;top=0;left=0;bottom=0;right=0;points=[[0,0.5],[1,0.5]];portConstraint=eastwest;" parent="a4JJQ3hbmo9ORdKB5tDZ-63" vertex="1">
          <mxGeometry y="60" width="180" height="20" as="geometry" />
        </mxCell>
        <mxCell id="a4JJQ3hbmo9ORdKB5tDZ-71" value="FK" style="shape=partialRectangle;connectable=0;fillColor=none;top=0;left=0;bottom=0;right=0;editable=1;overflow=hidden;" parent="a4JJQ3hbmo9ORdKB5tDZ-70" vertex="1">
          <mxGeometry width="30" height="20" as="geometry" />
        </mxCell>
        <mxCell id="a4JJQ3hbmo9ORdKB5tDZ-72" value="book name" style="shape=partialRectangle;connectable=0;fillColor=none;top=0;left=0;bottom=0;right=0;align=left;spacingLeft=6;overflow=hidden;fontStyle=1;" parent="a4JJQ3hbmo9ORdKB5tDZ-70" vertex="1">
          <mxGeometry x="30" width="150" height="20" as="geometry" />
        </mxCell>
        <mxCell id="a4JJQ3hbmo9ORdKB5tDZ-96" style="shape=partialRectangle;collapsible=0;dropTarget=0;pointerEvents=0;fillColor=none;top=0;left=0;bottom=0;right=0;points=[[0,0.5],[1,0.5]];portConstraint=eastwest;" parent="a4JJQ3hbmo9ORdKB5tDZ-63" vertex="1">
          <mxGeometry y="80" width="180" height="20" as="geometry" />
        </mxCell>
        <mxCell id="a4JJQ3hbmo9ORdKB5tDZ-97" style="shape=partialRectangle;connectable=0;fillColor=none;top=0;left=0;bottom=0;right=0;editable=1;overflow=hidden;" parent="a4JJQ3hbmo9ORdKB5tDZ-96" vertex="1">
          <mxGeometry width="30" height="20" as="geometry" />
        </mxCell>
        <mxCell id="a4JJQ3hbmo9ORdKB5tDZ-98" value="book number" style="shape=partialRectangle;connectable=0;fillColor=none;top=0;left=0;bottom=0;right=0;align=left;spacingLeft=6;overflow=hidden;fontStyle=1;" parent="a4JJQ3hbmo9ORdKB5tDZ-96" vertex="1">
          <mxGeometry x="30" width="150" height="20" as="geometry" />
        </mxCell>
        <mxCell id="a4JJQ3hbmo9ORdKB5tDZ-79" value="book" style="shape=table;startSize=30;container=1;collapsible=1;childLayout=tableLayout;fixedRows=1;rowLines=0;fontStyle=1;align=center;resizeLast=1;fillColor=#CCCCCC;" parent="1" vertex="1">
          <mxGeometry x="530" y="260" width="180" height="130" as="geometry" />
        </mxCell>
        <mxCell id="a4JJQ3hbmo9ORdKB5tDZ-80" value="" style="shape=partialRectangle;collapsible=0;dropTarget=0;pointerEvents=0;fillColor=none;top=0;left=0;bottom=1;right=0;points=[[0,0.5],[1,0.5]];portConstraint=eastwest;" parent="a4JJQ3hbmo9ORdKB5tDZ-79" vertex="1">
          <mxGeometry y="30" width="180" height="30" as="geometry" />
        </mxCell>
        <mxCell id="a4JJQ3hbmo9ORdKB5tDZ-81" value="PK" style="shape=partialRectangle;connectable=0;fillColor=none;top=0;left=0;bottom=0;right=0;fontStyle=1;overflow=hidden;" parent="a4JJQ3hbmo9ORdKB5tDZ-80" vertex="1">
          <mxGeometry width="30" height="30" as="geometry" />
        </mxCell>
        <mxCell id="a4JJQ3hbmo9ORdKB5tDZ-82" value="book _name" style="shape=partialRectangle;connectable=0;fillColor=none;top=0;left=0;bottom=0;right=0;align=left;spacingLeft=6;fontStyle=5;overflow=hidden;" parent="a4JJQ3hbmo9ORdKB5tDZ-80" vertex="1">
          <mxGeometry x="30" width="150" height="30" as="geometry" />
        </mxCell>
        <mxCell id="a4JJQ3hbmo9ORdKB5tDZ-83" value="" style="shape=partialRectangle;collapsible=0;dropTarget=0;pointerEvents=0;fillColor=none;top=0;left=0;bottom=0;right=0;points=[[0,0.5],[1,0.5]];portConstraint=eastwest;" parent="a4JJQ3hbmo9ORdKB5tDZ-79" vertex="1">
          <mxGeometry y="60" width="180" height="20" as="geometry" />
        </mxCell>
        <mxCell id="a4JJQ3hbmo9ORdKB5tDZ-84" value="" style="shape=partialRectangle;connectable=0;fillColor=none;top=0;left=0;bottom=0;right=0;editable=1;overflow=hidden;" parent="a4JJQ3hbmo9ORdKB5tDZ-83" vertex="1">
          <mxGeometry width="30" height="20" as="geometry" />
        </mxCell>
        <mxCell id="a4JJQ3hbmo9ORdKB5tDZ-85" value="borrow time" style="shape=partialRectangle;connectable=0;fillColor=none;top=0;left=0;bottom=0;right=0;align=left;spacingLeft=6;overflow=hidden;fontStyle=1;" parent="a4JJQ3hbmo9ORdKB5tDZ-83" vertex="1">
          <mxGeometry x="30" width="150" height="20" as="geometry" />
        </mxCell>
        <mxCell id="a4JJQ3hbmo9ORdKB5tDZ-86" value="" style="shape=partialRectangle;collapsible=0;dropTarget=0;pointerEvents=0;fillColor=none;top=0;left=0;bottom=0;right=0;points=[[0,0.5],[1,0.5]];portConstraint=eastwest;" parent="a4JJQ3hbmo9ORdKB5tDZ-79" vertex="1">
          <mxGeometry y="80" width="180" height="20" as="geometry" />
        </mxCell>
        <mxCell id="a4JJQ3hbmo9ORdKB5tDZ-87" value="" style="shape=partialRectangle;connectable=0;fillColor=none;top=0;left=0;bottom=0;right=0;editable=1;overflow=hidden;" parent="a4JJQ3hbmo9ORdKB5tDZ-86" vertex="1">
          <mxGeometry width="30" height="20" as="geometry" />
        </mxCell>
        <mxCell id="a4JJQ3hbmo9ORdKB5tDZ-88" value="return time" style="shape=partialRectangle;connectable=0;fillColor=none;top=0;left=0;bottom=0;right=0;align=left;spacingLeft=6;overflow=hidden;fontStyle=1;" parent="a4JJQ3hbmo9ORdKB5tDZ-86" vertex="1">
          <mxGeometry x="30" width="150" height="20" as="geometry" />
        </mxCell>
        <mxCell id="a4JJQ3hbmo9ORdKB5tDZ-120" style="shape=partialRectangle;collapsible=0;dropTarget=0;pointerEvents=0;fillColor=none;top=0;left=0;bottom=0;right=0;points=[[0,0.5],[1,0.5]];portConstraint=eastwest;" parent="a4JJQ3hbmo9ORdKB5tDZ-79" vertex="1">
          <mxGeometry y="100" width="180" height="20" as="geometry" />
        </mxCell>
        <mxCell id="a4JJQ3hbmo9ORdKB5tDZ-121" style="shape=partialRectangle;connectable=0;fillColor=none;top=0;left=0;bottom=0;right=0;editable=1;overflow=hidden;" parent="a4JJQ3hbmo9ORdKB5tDZ-120" vertex="1">
          <mxGeometry width="30" height="20" as="geometry" />
        </mxCell>
        <mxCell id="a4JJQ3hbmo9ORdKB5tDZ-122" value="STU_ID" style="shape=partialRectangle;connectable=0;fillColor=none;top=0;left=0;bottom=0;right=0;align=left;spacingLeft=6;overflow=hidden;fontStyle=1;" parent="a4JJQ3hbmo9ORdKB5tDZ-120" vertex="1">
          <mxGeometry x="30" width="150" height="20" as="geometry" />
        </mxCell>
        <mxCell id="m1BjPsNtlQlM0CQCzWrV-188" value="professor" style="shape=table;startSize=30;container=1;collapsible=1;childLayout=tableLayout;fixedRows=1;rowLines=0;fontStyle=1;align=center;resizeLast=1;fillColor=#CCCCCC;" parent="1" vertex="1">
          <mxGeometry x="345" y="810" width="180" height="120" as="geometry" />
        </mxCell>
        <mxCell id="m1BjPsNtlQlM0CQCzWrV-189" value="" style="shape=partialRectangle;collapsible=0;dropTarget=0;pointerEvents=0;fillColor=none;top=0;left=0;bottom=1;right=0;points=[[0,0.5],[1,0.5]];portConstraint=eastwest;" parent="m1BjPsNtlQlM0CQCzWrV-188" vertex="1">
          <mxGeometry y="30" width="180" height="30" as="geometry" />
        </mxCell>
        <mxCell id="m1BjPsNtlQlM0CQCzWrV-190" value="PK" style="shape=partialRectangle;connectable=0;fillColor=none;top=0;left=0;bottom=0;right=0;fontStyle=1;overflow=hidden;" parent="m1BjPsNtlQlM0CQCzWrV-189" vertex="1">
          <mxGeometry width="30" height="30" as="geometry" />
        </mxCell>
        <mxCell id="m1BjPsNtlQlM0CQCzWrV-191" value="professor name" style="shape=partialRectangle;connectable=0;fillColor=none;top=0;left=0;bottom=0;right=0;align=left;spacingLeft=6;fontStyle=5;overflow=hidden;" parent="m1BjPsNtlQlM0CQCzWrV-189" vertex="1">
          <mxGeometry x="30" width="150" height="30" as="geometry" />
        </mxCell>
        <mxCell id="m1BjPsNtlQlM0CQCzWrV-192" value="" style="shape=partialRectangle;collapsible=0;dropTarget=0;pointerEvents=0;fillColor=none;top=0;left=0;bottom=0;right=0;points=[[0,0.5],[1,0.5]];portConstraint=eastwest;" parent="m1BjPsNtlQlM0CQCzWrV-188" vertex="1">
          <mxGeometry y="60" width="180" height="20" as="geometry" />
        </mxCell>
        <mxCell id="m1BjPsNtlQlM0CQCzWrV-193" value="" style="shape=partialRectangle;connectable=0;fillColor=none;top=0;left=0;bottom=0;right=0;editable=1;overflow=hidden;" parent="m1BjPsNtlQlM0CQCzWrV-192" vertex="1">
          <mxGeometry width="30" height="20" as="geometry" />
        </mxCell>
        <mxCell id="m1BjPsNtlQlM0CQCzWrV-194" value="project hour" style="shape=partialRectangle;connectable=0;fillColor=none;top=0;left=0;bottom=0;right=0;align=left;spacingLeft=6;overflow=hidden;fontStyle=1;" parent="m1BjPsNtlQlM0CQCzWrV-192" vertex="1">
          <mxGeometry x="30" width="150" height="20" as="geometry" />
        </mxCell>
        <mxCell id="m1BjPsNtlQlM0CQCzWrV-195" value="" style="shape=partialRectangle;collapsible=0;dropTarget=0;pointerEvents=0;fillColor=none;top=0;left=0;bottom=0;right=0;points=[[0,0.5],[1,0.5]];portConstraint=eastwest;" parent="m1BjPsNtlQlM0CQCzWrV-188" vertex="1">
          <mxGeometry y="80" width="180" height="20" as="geometry" />
        </mxCell>
        <mxCell id="m1BjPsNtlQlM0CQCzWrV-196" value="" style="shape=partialRectangle;connectable=0;fillColor=none;top=0;left=0;bottom=0;right=0;editable=1;overflow=hidden;" parent="m1BjPsNtlQlM0CQCzWrV-195" vertex="1">
          <mxGeometry width="30" height="20" as="geometry" />
        </mxCell>
        <mxCell id="m1BjPsNtlQlM0CQCzWrV-197" value="class hour" style="shape=partialRectangle;connectable=0;fillColor=none;top=0;left=0;bottom=0;right=0;align=left;spacingLeft=6;overflow=hidden;fontStyle=1;" parent="m1BjPsNtlQlM0CQCzWrV-195" vertex="1">
          <mxGeometry x="30" width="150" height="20" as="geometry" />
        </mxCell>
        <mxCell id="m1BjPsNtlQlM0CQCzWrV-198" value="" style="shape=partialRectangle;collapsible=0;dropTarget=0;pointerEvents=0;fillColor=none;top=0;left=0;bottom=0;right=0;points=[[0,0.5],[1,0.5]];portConstraint=eastwest;" parent="m1BjPsNtlQlM0CQCzWrV-188" vertex="1">
          <mxGeometry y="100" width="180" height="20" as="geometry" />
        </mxCell>
        <mxCell id="m1BjPsNtlQlM0CQCzWrV-199" value="" style="shape=partialRectangle;connectable=0;fillColor=none;top=0;left=0;bottom=0;right=0;editable=1;overflow=hidden;" parent="m1BjPsNtlQlM0CQCzWrV-198" vertex="1">
          <mxGeometry width="30" height="20" as="geometry" />
        </mxCell>
        <mxCell id="m1BjPsNtlQlM0CQCzWrV-200" value="Row 3" style="shape=partialRectangle;connectable=0;fillColor=none;top=0;left=0;bottom=0;right=0;align=left;spacingLeft=6;overflow=hidden;fontStyle=1;" parent="m1BjPsNtlQlM0CQCzWrV-198" vertex="1">
          <mxGeometry x="30" width="150" height="20" as="geometry" />
        </mxCell>
        <mxCell id="rKwM3at-qu2hx9PtTfh6-33" value="students" style="shape=table;startSize=30;container=1;collapsible=1;childLayout=tableLayout;fixedRows=1;rowLines=0;fontStyle=1;align=center;resizeLast=1;strokeColor=#666666;fontSize=12;fontColor=#333333;fillColor=#CCCCCC;" parent="1" vertex="1">
          <mxGeometry x="60" y="435" width="135" height="90" as="geometry">
            <mxRectangle x="400" y="260" width="60" height="30" as="alternateBounds" />
          </mxGeometry>
        </mxCell>
        <mxCell id="rKwM3at-qu2hx9PtTfh6-34" value="" style="shape=partialRectangle;collapsible=0;dropTarget=0;pointerEvents=0;fillColor=none;top=0;left=0;bottom=1;right=0;points=[[0,0.5],[1,0.5]];portConstraint=eastwest;" parent="rKwM3at-qu2hx9PtTfh6-33" vertex="1">
          <mxGeometry y="30" width="135" height="30" as="geometry" />
        </mxCell>
        <mxCell id="rKwM3at-qu2hx9PtTfh6-35" value="PK" style="shape=partialRectangle;connectable=0;fillColor=none;top=0;left=0;bottom=0;right=0;fontStyle=1;overflow=hidden;" parent="rKwM3at-qu2hx9PtTfh6-34" vertex="1">
          <mxGeometry width="60" height="30" as="geometry" />
        </mxCell>
        <mxCell id="rKwM3at-qu2hx9PtTfh6-36" value="STU_ID" style="shape=partialRectangle;connectable=0;fillColor=none;top=0;left=0;bottom=0;right=0;align=left;spacingLeft=6;fontStyle=5;overflow=hidden;" parent="rKwM3at-qu2hx9PtTfh6-34" vertex="1">
          <mxGeometry x="60" width="75" height="30" as="geometry" />
        </mxCell>
        <mxCell id="rKwM3at-qu2hx9PtTfh6-37" value="" style="shape=partialRectangle;collapsible=0;dropTarget=0;pointerEvents=0;fillColor=none;top=0;left=0;bottom=0;right=0;points=[[0,0.5],[1,0.5]];portConstraint=eastwest;" parent="rKwM3at-qu2hx9PtTfh6-33" vertex="1">
          <mxGeometry y="60" width="135" height="30" as="geometry" />
        </mxCell>
        <mxCell id="rKwM3at-qu2hx9PtTfh6-38" value="" style="shape=partialRectangle;connectable=0;fillColor=none;top=0;left=0;bottom=0;right=0;editable=1;overflow=hidden;" parent="rKwM3at-qu2hx9PtTfh6-37" vertex="1">
          <mxGeometry width="60" height="30" as="geometry" />
        </mxCell>
        <mxCell id="rKwM3at-qu2hx9PtTfh6-39" value="STU_NAME" style="shape=partialRectangle;connectable=0;fillColor=none;top=0;left=0;bottom=0;right=0;align=left;spacingLeft=6;overflow=hidden;fontStyle=1;" parent="rKwM3at-qu2hx9PtTfh6-37" vertex="1">
          <mxGeometry x="60" width="75" height="30" as="geometry" />
        </mxCell>
        <mxCell id="a4JJQ3hbmo9ORdKB5tDZ-1" value="vendors" style="shape=table;startSize=30;container=1;collapsible=1;childLayout=tableLayout;fixedRows=1;rowLines=0;fontStyle=1;align=center;resizeLast=1;fillColor=#CCCCCC;" parent="1" vertex="1">
          <mxGeometry x="700" y="425" width="145" height="95" as="geometry" />
        </mxCell>
        <mxCell id="a4JJQ3hbmo9ORdKB5tDZ-2" value="" style="shape=partialRectangle;collapsible=0;dropTarget=0;pointerEvents=0;fillColor=none;top=0;left=0;bottom=1;right=0;points=[[0,0.5],[1,0.5]];portConstraint=eastwest;" parent="a4JJQ3hbmo9ORdKB5tDZ-1" vertex="1">
          <mxGeometry y="30" width="145" height="30" as="geometry" />
        </mxCell>
        <mxCell id="a4JJQ3hbmo9ORdKB5tDZ-3" value="PK" style="shape=partialRectangle;connectable=0;fillColor=none;top=0;left=0;bottom=0;right=0;fontStyle=1;overflow=hidden;" parent="a4JJQ3hbmo9ORdKB5tDZ-2" vertex="1">
          <mxGeometry width="30" height="30" as="geometry" />
        </mxCell>
        <mxCell id="a4JJQ3hbmo9ORdKB5tDZ-4" value="vendor name" style="shape=partialRectangle;connectable=0;fillColor=none;top=0;left=0;bottom=0;right=0;align=left;spacingLeft=6;fontStyle=5;overflow=hidden;" parent="a4JJQ3hbmo9ORdKB5tDZ-2" vertex="1">
          <mxGeometry x="30" width="115" height="30" as="geometry" />
        </mxCell>
        <mxCell id="a4JJQ3hbmo9ORdKB5tDZ-5" value="" style="shape=partialRectangle;collapsible=0;dropTarget=0;pointerEvents=0;fillColor=none;top=0;left=0;bottom=0;right=0;points=[[0,0.5],[1,0.5]];portConstraint=eastwest;" parent="a4JJQ3hbmo9ORdKB5tDZ-1" vertex="1">
          <mxGeometry y="60" width="145" height="30" as="geometry" />
        </mxCell>
        <mxCell id="a4JJQ3hbmo9ORdKB5tDZ-6" value="FK" style="shape=partialRectangle;connectable=0;fillColor=none;top=0;left=0;bottom=0;right=0;editable=1;overflow=hidden;fontStyle=1;" parent="a4JJQ3hbmo9ORdKB5tDZ-5" vertex="1">
          <mxGeometry width="30" height="30" as="geometry" />
        </mxCell>
        <mxCell id="a4JJQ3hbmo9ORdKB5tDZ-7" value="PARTS_CODE" style="shape=partialRectangle;connectable=0;fillColor=none;top=0;left=0;bottom=0;right=0;align=left;spacingLeft=6;overflow=hidden;fontStyle=1;" parent="a4JJQ3hbmo9ORdKB5tDZ-5" vertex="1">
          <mxGeometry x="30" width="115" height="30" as="geometry" />
        </mxCell>
        <mxCell id="m1BjPsNtlQlM0CQCzWrV-310" value="box" style="shape=table;startSize=30;container=1;collapsible=1;childLayout=tableLayout;fixedRows=1;rowLines=0;fontStyle=1;align=center;resizeLast=1;fillColor=#CCCCCC;" parent="1" vertex="1">
          <mxGeometry x="492.5" y="400" width="145" height="170" as="geometry" />
        </mxCell>
        <mxCell id="m1BjPsNtlQlM0CQCzWrV-311" value="" style="shape=partialRectangle;collapsible=0;dropTarget=0;pointerEvents=0;fillColor=none;top=0;left=0;bottom=1;right=0;points=[[0,0.5],[1,0.5]];portConstraint=eastwest;" parent="m1BjPsNtlQlM0CQCzWrV-310" vertex="1">
          <mxGeometry y="30" width="145" height="30" as="geometry" />
        </mxCell>
        <mxCell id="m1BjPsNtlQlM0CQCzWrV-312" value="PK" style="shape=partialRectangle;connectable=0;fillColor=none;top=0;left=0;bottom=0;right=0;fontStyle=1;overflow=hidden;" parent="m1BjPsNtlQlM0CQCzWrV-311" vertex="1">
          <mxGeometry width="50" height="30" as="geometry" />
        </mxCell>
        <mxCell id="m1BjPsNtlQlM0CQCzWrV-313" value="PARTS CODE" style="shape=partialRectangle;connectable=0;fillColor=none;top=0;left=0;bottom=0;right=0;align=left;spacingLeft=6;fontStyle=5;overflow=hidden;" parent="m1BjPsNtlQlM0CQCzWrV-311" vertex="1">
          <mxGeometry x="50" width="95" height="30" as="geometry" />
        </mxCell>
        <mxCell id="m1BjPsNtlQlM0CQCzWrV-314" value="" style="shape=partialRectangle;collapsible=0;dropTarget=0;pointerEvents=0;fillColor=none;top=0;left=0;bottom=0;right=0;points=[[0,0.5],[1,0.5]];portConstraint=eastwest;" parent="m1BjPsNtlQlM0CQCzWrV-310" vertex="1">
          <mxGeometry y="60" width="145" height="30" as="geometry" />
        </mxCell>
        <mxCell id="m1BjPsNtlQlM0CQCzWrV-315" value="FK" style="shape=partialRectangle;connectable=0;fillColor=none;top=0;left=0;bottom=0;right=0;editable=1;overflow=hidden;fontStyle=1;" parent="m1BjPsNtlQlM0CQCzWrV-314" vertex="1">
          <mxGeometry width="50" height="30" as="geometry" />
        </mxCell>
        <mxCell id="m1BjPsNtlQlM0CQCzWrV-316" value="table num" style="shape=partialRectangle;connectable=0;fillColor=none;top=0;left=0;bottom=0;right=0;align=left;spacingLeft=6;overflow=hidden;fontStyle=1;" parent="m1BjPsNtlQlM0CQCzWrV-314" vertex="1">
          <mxGeometry x="50" width="95" height="30" as="geometry" />
        </mxCell>
        <mxCell id="m1BjPsNtlQlM0CQCzWrV-327" style="shape=partialRectangle;collapsible=0;dropTarget=0;pointerEvents=0;fillColor=none;top=0;left=0;bottom=0;right=0;points=[[0,0.5],[1,0.5]];portConstraint=eastwest;" parent="m1BjPsNtlQlM0CQCzWrV-310" vertex="1">
          <mxGeometry y="90" width="145" height="30" as="geometry" />
        </mxCell>
        <mxCell id="m1BjPsNtlQlM0CQCzWrV-328" style="shape=partialRectangle;connectable=0;fillColor=none;top=0;left=0;bottom=0;right=0;editable=1;overflow=hidden;" parent="m1BjPsNtlQlM0CQCzWrV-327" vertex="1">
          <mxGeometry width="50" height="30" as="geometry" />
        </mxCell>
        <mxCell id="m1BjPsNtlQlM0CQCzWrV-329" value="borrow time" style="shape=partialRectangle;connectable=0;fillColor=none;top=0;left=0;bottom=0;right=0;align=left;spacingLeft=6;overflow=hidden;fontStyle=1;" parent="m1BjPsNtlQlM0CQCzWrV-327" vertex="1">
          <mxGeometry x="50" width="95" height="30" as="geometry" />
        </mxCell>
        <mxCell id="m1BjPsNtlQlM0CQCzWrV-324" style="shape=partialRectangle;collapsible=0;dropTarget=0;pointerEvents=0;fillColor=none;top=0;left=0;bottom=0;right=0;points=[[0,0.5],[1,0.5]];portConstraint=eastwest;" parent="m1BjPsNtlQlM0CQCzWrV-310" vertex="1">
          <mxGeometry y="120" width="145" height="30" as="geometry" />
        </mxCell>
        <mxCell id="m1BjPsNtlQlM0CQCzWrV-325" style="shape=partialRectangle;connectable=0;fillColor=none;top=0;left=0;bottom=0;right=0;editable=1;overflow=hidden;" parent="m1BjPsNtlQlM0CQCzWrV-324" vertex="1">
          <mxGeometry width="50" height="30" as="geometry" />
        </mxCell>
        <mxCell id="m1BjPsNtlQlM0CQCzWrV-326" value="return time" style="shape=partialRectangle;connectable=0;fillColor=none;top=0;left=0;bottom=0;right=0;align=left;spacingLeft=6;overflow=hidden;fontStyle=1;" parent="m1BjPsNtlQlM0CQCzWrV-324" vertex="1">
          <mxGeometry x="50" width="95" height="30" as="geometry" />
        </mxCell>
        <mxCell id="m1BjPsNtlQlM0CQCzWrV-334" style="shape=partialRectangle;collapsible=0;dropTarget=0;pointerEvents=0;fillColor=none;top=0;left=0;bottom=0;right=0;points=[[0,0.5],[1,0.5]];portConstraint=eastwest;" parent="m1BjPsNtlQlM0CQCzWrV-310" vertex="1">
          <mxGeometry y="150" width="145" height="20" as="geometry" />
        </mxCell>
        <mxCell id="m1BjPsNtlQlM0CQCzWrV-335" value="" style="shape=partialRectangle;connectable=0;fillColor=none;top=0;left=0;bottom=0;right=0;editable=1;overflow=hidden;" parent="m1BjPsNtlQlM0CQCzWrV-334" vertex="1">
          <mxGeometry width="50" height="20" as="geometry" />
        </mxCell>
        <mxCell id="m1BjPsNtlQlM0CQCzWrV-336" value="work ording" style="shape=partialRectangle;connectable=0;fillColor=none;top=0;left=0;bottom=0;right=0;align=left;spacingLeft=6;overflow=hidden;fontStyle=1;" parent="m1BjPsNtlQlM0CQCzWrV-334" vertex="1">
          <mxGeometry x="50" width="95" height="20" as="geometry" />
        </mxCell>
        <mxCell id="m1BjPsNtlQlM0CQCzWrV-289" value="table" style="shape=table;startSize=30;container=1;collapsible=1;childLayout=tableLayout;fixedRows=1;rowLines=0;fontStyle=1;align=center;resizeLast=1;fillColor=#CCCCCC;" parent="1" vertex="1">
          <mxGeometry x="300" y="420" width="135" height="100" as="geometry" />
        </mxCell>
        <mxCell id="m1BjPsNtlQlM0CQCzWrV-290" value="" style="shape=partialRectangle;collapsible=0;dropTarget=0;pointerEvents=0;fillColor=none;top=0;left=0;bottom=1;right=0;points=[[0,0.5],[1,0.5]];portConstraint=eastwest;" parent="m1BjPsNtlQlM0CQCzWrV-289" vertex="1">
          <mxGeometry y="30" width="135" height="40" as="geometry" />
        </mxCell>
        <mxCell id="m1BjPsNtlQlM0CQCzWrV-291" value="PK,FK" style="shape=partialRectangle;connectable=0;fillColor=none;top=0;left=0;bottom=0;right=0;fontStyle=1;overflow=hidden;" parent="m1BjPsNtlQlM0CQCzWrV-290" vertex="1">
          <mxGeometry width="40" height="40" as="geometry" />
        </mxCell>
        <mxCell id="m1BjPsNtlQlM0CQCzWrV-292" value="table_num&#xa;PRO_CODE" style="shape=partialRectangle;connectable=0;fillColor=none;top=0;left=0;bottom=0;right=0;align=left;spacingLeft=6;fontStyle=5;overflow=hidden;" parent="m1BjPsNtlQlM0CQCzWrV-290" vertex="1">
          <mxGeometry x="40" width="95" height="40" as="geometry" />
        </mxCell>
        <mxCell id="m1BjPsNtlQlM0CQCzWrV-293" value="" style="shape=partialRectangle;collapsible=0;dropTarget=0;pointerEvents=0;fillColor=none;top=0;left=0;bottom=0;right=0;points=[[0,0.5],[1,0.5]];portConstraint=eastwest;" parent="m1BjPsNtlQlM0CQCzWrV-289" vertex="1">
          <mxGeometry y="70" width="135" height="30" as="geometry" />
        </mxCell>
        <mxCell id="m1BjPsNtlQlM0CQCzWrV-294" value="FK" style="shape=partialRectangle;connectable=0;fillColor=none;top=0;left=0;bottom=0;right=0;editable=1;overflow=hidden;fontStyle=1;" parent="m1BjPsNtlQlM0CQCzWrV-293" vertex="1">
          <mxGeometry width="40" height="30" as="geometry" />
        </mxCell>
        <mxCell id="m1BjPsNtlQlM0CQCzWrV-295" value="STU_ID" style="shape=partialRectangle;connectable=0;fillColor=none;top=0;left=0;bottom=0;right=0;align=left;spacingLeft=6;overflow=hidden;fontStyle=1;" parent="m1BjPsNtlQlM0CQCzWrV-293" vertex="1">
          <mxGeometry x="40" width="95" height="30" as="geometry" />
        </mxCell>
        <mxCell id="rKwM3at-qu2hx9PtTfh6-72" value="coding class" style="shape=table;startSize=30;container=1;collapsible=1;childLayout=tableLayout;fixedRows=1;rowLines=0;fontStyle=1;align=center;resizeLast=1;strokeColor=#000000;fillColor=#CCCCCC;fontSize=12;verticalAlign=middle;" parent="1" vertex="1">
          <mxGeometry x="345" y="610" width="140" height="140" as="geometry" />
        </mxCell>
        <mxCell id="rKwM3at-qu2hx9PtTfh6-73" value="" style="shape=partialRectangle;collapsible=0;dropTarget=0;pointerEvents=0;fillColor=none;top=0;left=0;bottom=1;right=0;points=[[0,0.5],[1,0.5]];portConstraint=eastwest;" parent="rKwM3at-qu2hx9PtTfh6-72" vertex="1">
          <mxGeometry y="30" width="140" height="30" as="geometry" />
        </mxCell>
        <mxCell id="rKwM3at-qu2hx9PtTfh6-74" value="PK" style="shape=partialRectangle;connectable=0;fillColor=none;top=0;left=0;bottom=0;right=0;fontStyle=1;overflow=hidden;" parent="rKwM3at-qu2hx9PtTfh6-73" vertex="1">
          <mxGeometry width="35" height="30" as="geometry" />
        </mxCell>
        <mxCell id="rKwM3at-qu2hx9PtTfh6-75" value="CLA_CODE" style="shape=partialRectangle;connectable=0;fillColor=none;top=0;left=0;bottom=0;right=0;align=left;spacingLeft=6;fontStyle=5;overflow=hidden;" parent="rKwM3at-qu2hx9PtTfh6-73" vertex="1">
          <mxGeometry x="35" width="105" height="30" as="geometry" />
        </mxCell>
        <mxCell id="rKwM3at-qu2hx9PtTfh6-76" value="" style="shape=partialRectangle;collapsible=0;dropTarget=0;pointerEvents=0;fillColor=none;top=0;left=0;bottom=0;right=0;points=[[0,0.5],[1,0.5]];portConstraint=eastwest;" parent="rKwM3at-qu2hx9PtTfh6-72" vertex="1">
          <mxGeometry y="60" width="140" height="20" as="geometry" />
        </mxCell>
        <mxCell id="rKwM3at-qu2hx9PtTfh6-77" value="FK" style="shape=partialRectangle;connectable=0;fillColor=none;top=0;left=0;bottom=0;right=0;editable=1;overflow=hidden;fontStyle=1;" parent="rKwM3at-qu2hx9PtTfh6-76" vertex="1">
          <mxGeometry width="35" height="20" as="geometry" />
        </mxCell>
        <mxCell id="rKwM3at-qu2hx9PtTfh6-78" value="professor name" style="shape=partialRectangle;connectable=0;fillColor=none;top=0;left=0;bottom=0;right=0;align=left;spacingLeft=6;overflow=hidden;fontStyle=1;" parent="rKwM3at-qu2hx9PtTfh6-76" vertex="1">
          <mxGeometry x="35" width="105" height="20" as="geometry" />
        </mxCell>
        <mxCell id="m1BjPsNtlQlM0CQCzWrV-13" value="" style="shape=partialRectangle;collapsible=0;dropTarget=0;pointerEvents=0;fillColor=none;top=0;left=0;bottom=0;right=0;points=[[0,0.5],[1,0.5]];portConstraint=eastwest;" parent="rKwM3at-qu2hx9PtTfh6-72" vertex="1">
          <mxGeometry y="80" width="140" height="20" as="geometry" />
        </mxCell>
        <mxCell id="m1BjPsNtlQlM0CQCzWrV-14" value="" style="shape=partialRectangle;connectable=0;fillColor=none;top=0;left=0;bottom=0;right=0;editable=1;overflow=hidden;" parent="m1BjPsNtlQlM0CQCzWrV-13" vertex="1">
          <mxGeometry width="35" height="20" as="geometry" />
        </mxCell>
        <mxCell id="m1BjPsNtlQlM0CQCzWrV-15" value="coding type" style="shape=partialRectangle;connectable=0;fillColor=none;top=0;left=0;bottom=0;right=0;align=left;spacingLeft=6;overflow=hidden;fontStyle=1;" parent="m1BjPsNtlQlM0CQCzWrV-13" vertex="1">
          <mxGeometry x="35" width="105" height="20" as="geometry" />
        </mxCell>
        <mxCell id="rKwM3at-qu2hx9PtTfh6-82" value="" style="shape=partialRectangle;collapsible=0;dropTarget=0;pointerEvents=0;fillColor=none;top=0;left=0;bottom=0;right=0;points=[[0,0.5],[1,0.5]];portConstraint=eastwest;" parent="rKwM3at-qu2hx9PtTfh6-72" vertex="1">
          <mxGeometry y="100" width="140" height="20" as="geometry" />
        </mxCell>
        <mxCell id="rKwM3at-qu2hx9PtTfh6-83" value="" style="shape=partialRectangle;connectable=0;fillColor=none;top=0;left=0;bottom=0;right=0;editable=1;overflow=hidden;" parent="rKwM3at-qu2hx9PtTfh6-82" vertex="1">
          <mxGeometry width="35" height="20" as="geometry" />
        </mxCell>
        <mxCell id="rKwM3at-qu2hx9PtTfh6-84" value="class time" style="shape=partialRectangle;connectable=0;fillColor=none;top=0;left=0;bottom=0;right=0;align=left;spacingLeft=6;overflow=hidden;fontStyle=1;" parent="rKwM3at-qu2hx9PtTfh6-82" vertex="1">
          <mxGeometry x="35" width="105" height="20" as="geometry" />
        </mxCell>
        <mxCell id="a4JJQ3hbmo9ORdKB5tDZ-33" style="shape=partialRectangle;collapsible=0;dropTarget=0;pointerEvents=0;fillColor=none;top=0;left=0;bottom=0;right=0;points=[[0,0.5],[1,0.5]];portConstraint=eastwest;" parent="rKwM3at-qu2hx9PtTfh6-72" vertex="1">
          <mxGeometry y="120" width="140" height="20" as="geometry" />
        </mxCell>
        <mxCell id="a4JJQ3hbmo9ORdKB5tDZ-34" value="FK" style="shape=partialRectangle;connectable=0;fillColor=none;top=0;left=0;bottom=0;right=0;editable=1;overflow=hidden;fontStyle=1;" parent="a4JJQ3hbmo9ORdKB5tDZ-33" vertex="1">
          <mxGeometry width="35" height="20" as="geometry" />
        </mxCell>
        <mxCell id="a4JJQ3hbmo9ORdKB5tDZ-35" value="ROOM_CODE" style="shape=partialRectangle;connectable=0;fillColor=none;top=0;left=0;bottom=0;right=0;align=left;spacingLeft=6;overflow=hidden;fontStyle=1;" parent="a4JJQ3hbmo9ORdKB5tDZ-33" vertex="1">
          <mxGeometry x="35" width="105" height="20" as="geometry" />
        </mxCell>
        <mxCell id="m1BjPsNtlQlM0CQCzWrV-210" value="textbook" style="shape=table;startSize=30;container=1;collapsible=1;childLayout=tableLayout;fixedRows=1;rowLines=0;fontStyle=1;align=center;resizeLast=1;fillColor=#CCCCCC;" parent="1" vertex="1">
          <mxGeometry x="590" y="610" width="160" height="90" as="geometry" />
        </mxCell>
        <mxCell id="m1BjPsNtlQlM0CQCzWrV-211" value="" style="shape=partialRectangle;collapsible=0;dropTarget=0;pointerEvents=0;fillColor=none;top=0;left=0;bottom=1;right=0;points=[[0,0.5],[1,0.5]];portConstraint=eastwest;" parent="m1BjPsNtlQlM0CQCzWrV-210" vertex="1">
          <mxGeometry y="30" width="160" height="30" as="geometry" />
        </mxCell>
        <mxCell id="m1BjPsNtlQlM0CQCzWrV-212" value="PK" style="shape=partialRectangle;connectable=0;fillColor=none;top=0;left=0;bottom=0;right=0;fontStyle=1;overflow=hidden;" parent="m1BjPsNtlQlM0CQCzWrV-211" vertex="1">
          <mxGeometry width="30" height="30" as="geometry" />
        </mxCell>
        <mxCell id="m1BjPsNtlQlM0CQCzWrV-213" value="bookname" style="shape=partialRectangle;connectable=0;fillColor=none;top=0;left=0;bottom=0;right=0;align=left;spacingLeft=6;fontStyle=5;overflow=hidden;" parent="m1BjPsNtlQlM0CQCzWrV-211" vertex="1">
          <mxGeometry x="30" width="130" height="30" as="geometry" />
        </mxCell>
        <mxCell id="m1BjPsNtlQlM0CQCzWrV-214" value="" style="shape=partialRectangle;collapsible=0;dropTarget=0;pointerEvents=0;fillColor=none;top=0;left=0;bottom=0;right=0;points=[[0,0.5],[1,0.5]];portConstraint=eastwest;" parent="m1BjPsNtlQlM0CQCzWrV-210" vertex="1">
          <mxGeometry y="60" width="160" height="30" as="geometry" />
        </mxCell>
        <mxCell id="m1BjPsNtlQlM0CQCzWrV-215" value="FK" style="shape=partialRectangle;connectable=0;fillColor=none;top=0;left=0;bottom=0;right=0;editable=1;overflow=hidden;fontStyle=1;" parent="m1BjPsNtlQlM0CQCzWrV-214" vertex="1">
          <mxGeometry width="30" height="30" as="geometry" />
        </mxCell>
        <mxCell id="m1BjPsNtlQlM0CQCzWrV-216" value="CLA_CODE" style="shape=partialRectangle;connectable=0;fillColor=none;top=0;left=0;bottom=0;right=0;align=left;spacingLeft=6;overflow=hidden;fontStyle=1;" parent="m1BjPsNtlQlM0CQCzWrV-214" vertex="1">
          <mxGeometry x="30" width="130" height="30" as="geometry" />
        </mxCell>
        <mxCell id="m1BjPsNtlQlM0CQCzWrV-273" value="payment" style="shape=table;startSize=30;container=1;collapsible=1;childLayout=tableLayout;fixedRows=1;rowLines=0;fontStyle=1;align=center;resizeLast=1;fillColor=#CCCCCC;" parent="1" vertex="1">
          <mxGeometry x="610" y="770" width="180" height="160" as="geometry" />
        </mxCell>
        <mxCell id="m1BjPsNtlQlM0CQCzWrV-274" value="" style="shape=partialRectangle;collapsible=0;dropTarget=0;pointerEvents=0;fillColor=none;top=0;left=0;bottom=1;right=0;points=[[0,0.5],[1,0.5]];portConstraint=eastwest;" parent="m1BjPsNtlQlM0CQCzWrV-273" vertex="1">
          <mxGeometry y="30" width="180" height="30" as="geometry" />
        </mxCell>
        <mxCell id="m1BjPsNtlQlM0CQCzWrV-275" value="PK,FK" style="shape=partialRectangle;connectable=0;fillColor=none;top=0;left=0;bottom=0;right=0;fontStyle=1;overflow=hidden;" parent="m1BjPsNtlQlM0CQCzWrV-274" vertex="1">
          <mxGeometry width="50" height="30" as="geometry" />
        </mxCell>
        <mxCell id="m1BjPsNtlQlM0CQCzWrV-276" value="professor name" style="shape=partialRectangle;connectable=0;fillColor=none;top=0;left=0;bottom=0;right=0;align=left;spacingLeft=6;fontStyle=5;overflow=hidden;" parent="m1BjPsNtlQlM0CQCzWrV-274" vertex="1">
          <mxGeometry x="50" width="130" height="30" as="geometry" />
        </mxCell>
        <mxCell id="m1BjPsNtlQlM0CQCzWrV-277" value="" style="shape=partialRectangle;collapsible=0;dropTarget=0;pointerEvents=0;fillColor=none;top=0;left=0;bottom=0;right=0;points=[[0,0.5],[1,0.5]];portConstraint=eastwest;" parent="m1BjPsNtlQlM0CQCzWrV-273" vertex="1">
          <mxGeometry y="60" width="180" height="30" as="geometry" />
        </mxCell>
        <mxCell id="m1BjPsNtlQlM0CQCzWrV-278" value="" style="shape=partialRectangle;connectable=0;fillColor=none;top=0;left=0;bottom=0;right=0;editable=1;overflow=hidden;" parent="m1BjPsNtlQlM0CQCzWrV-277" vertex="1">
          <mxGeometry width="50" height="30" as="geometry" />
        </mxCell>
        <mxCell id="m1BjPsNtlQlM0CQCzWrV-279" value="class pays" style="shape=partialRectangle;connectable=0;fillColor=none;top=0;left=0;bottom=0;right=0;align=left;spacingLeft=6;overflow=hidden;fontStyle=1;" parent="m1BjPsNtlQlM0CQCzWrV-277" vertex="1">
          <mxGeometry x="50" width="130" height="30" as="geometry" />
        </mxCell>
        <mxCell id="m1BjPsNtlQlM0CQCzWrV-280" value="" style="shape=partialRectangle;collapsible=0;dropTarget=0;pointerEvents=0;fillColor=none;top=0;left=0;bottom=0;right=0;points=[[0,0.5],[1,0.5]];portConstraint=eastwest;" parent="m1BjPsNtlQlM0CQCzWrV-273" vertex="1">
          <mxGeometry y="90" width="180" height="30" as="geometry" />
        </mxCell>
        <mxCell id="m1BjPsNtlQlM0CQCzWrV-281" value="" style="shape=partialRectangle;connectable=0;fillColor=none;top=0;left=0;bottom=0;right=0;editable=1;overflow=hidden;" parent="m1BjPsNtlQlM0CQCzWrV-280" vertex="1">
          <mxGeometry width="50" height="30" as="geometry" />
        </mxCell>
        <mxCell id="m1BjPsNtlQlM0CQCzWrV-282" value="project pays" style="shape=partialRectangle;connectable=0;fillColor=none;top=0;left=0;bottom=0;right=0;align=left;spacingLeft=6;overflow=hidden;fontStyle=1;" parent="m1BjPsNtlQlM0CQCzWrV-280" vertex="1">
          <mxGeometry x="50" width="130" height="30" as="geometry" />
        </mxCell>
        <mxCell id="m1BjPsNtlQlM0CQCzWrV-283" value="" style="shape=partialRectangle;collapsible=0;dropTarget=0;pointerEvents=0;fillColor=none;top=0;left=0;bottom=0;right=0;points=[[0,0.5],[1,0.5]];portConstraint=eastwest;" parent="m1BjPsNtlQlM0CQCzWrV-273" vertex="1">
          <mxGeometry y="120" width="180" height="30" as="geometry" />
        </mxCell>
        <mxCell id="m1BjPsNtlQlM0CQCzWrV-284" value="" style="shape=partialRectangle;connectable=0;fillColor=none;top=0;left=0;bottom=0;right=0;editable=1;overflow=hidden;" parent="m1BjPsNtlQlM0CQCzWrV-283" vertex="1">
          <mxGeometry width="50" height="30" as="geometry" />
        </mxCell>
        <mxCell id="m1BjPsNtlQlM0CQCzWrV-285" value="full payment" style="shape=partialRectangle;connectable=0;fillColor=none;top=0;left=0;bottom=0;right=0;align=left;spacingLeft=6;overflow=hidden;fontStyle=1;" parent="m1BjPsNtlQlM0CQCzWrV-283" vertex="1">
          <mxGeometry x="50" width="130" height="30" as="geometry" />
        </mxCell>
        <mxCell id="rKwM3at-qu2hx9PtTfh6-59" value="project" style="shape=table;startSize=30;container=1;collapsible=1;childLayout=tableLayout;fixedRows=1;rowLines=0;fontStyle=1;align=center;resizeLast=1;strokeColor=#000000;fillColor=#CCCCCC;fontSize=12;" parent="1" vertex="1">
          <mxGeometry x="75" y="770" width="160" height="140" as="geometry" />
        </mxCell>
        <mxCell id="rKwM3at-qu2hx9PtTfh6-60" value="" style="shape=partialRectangle;collapsible=0;dropTarget=0;pointerEvents=0;fillColor=none;top=0;left=0;bottom=1;right=0;points=[[0,0.5],[1,0.5]];portConstraint=eastwest;" parent="rKwM3at-qu2hx9PtTfh6-59" vertex="1">
          <mxGeometry y="30" width="160" height="30" as="geometry" />
        </mxCell>
        <mxCell id="rKwM3at-qu2hx9PtTfh6-61" value="PK" style="shape=partialRectangle;connectable=0;fillColor=none;top=0;left=0;bottom=0;right=0;fontStyle=1;overflow=hidden;" parent="rKwM3at-qu2hx9PtTfh6-60" vertex="1">
          <mxGeometry width="30" height="30" as="geometry" />
        </mxCell>
        <mxCell id="rKwM3at-qu2hx9PtTfh6-62" value="PRO_CODE" style="shape=partialRectangle;connectable=0;fillColor=none;top=0;left=0;bottom=0;right=0;align=left;spacingLeft=6;fontStyle=5;overflow=hidden;" parent="rKwM3at-qu2hx9PtTfh6-60" vertex="1">
          <mxGeometry x="30" width="130" height="30" as="geometry" />
        </mxCell>
        <mxCell id="rKwM3at-qu2hx9PtTfh6-63" value="" style="shape=partialRectangle;collapsible=0;dropTarget=0;pointerEvents=0;fillColor=none;top=0;left=0;bottom=0;right=0;points=[[0,0.5],[1,0.5]];portConstraint=eastwest;" parent="rKwM3at-qu2hx9PtTfh6-59" vertex="1">
          <mxGeometry y="60" width="160" height="20" as="geometry" />
        </mxCell>
        <mxCell id="rKwM3at-qu2hx9PtTfh6-64" value="FK" style="shape=partialRectangle;connectable=0;fillColor=none;top=0;left=0;bottom=0;right=0;editable=1;overflow=hidden;fontStyle=1;" parent="rKwM3at-qu2hx9PtTfh6-63" vertex="1">
          <mxGeometry width="30" height="20" as="geometry" />
        </mxCell>
        <mxCell id="rKwM3at-qu2hx9PtTfh6-65" value="professor name " style="shape=partialRectangle;connectable=0;fillColor=none;top=0;left=0;bottom=0;right=0;align=left;spacingLeft=6;overflow=hidden;fontStyle=1;" parent="rKwM3at-qu2hx9PtTfh6-63" vertex="1">
          <mxGeometry x="30" width="130" height="20" as="geometry" />
        </mxCell>
        <mxCell id="rKwM3at-qu2hx9PtTfh6-66" value="" style="shape=partialRectangle;collapsible=0;dropTarget=0;pointerEvents=0;fillColor=none;top=0;left=0;bottom=0;right=0;points=[[0,0.5],[1,0.5]];portConstraint=eastwest;" parent="rKwM3at-qu2hx9PtTfh6-59" vertex="1">
          <mxGeometry y="80" width="160" height="20" as="geometry" />
        </mxCell>
        <mxCell id="rKwM3at-qu2hx9PtTfh6-67" value="" style="shape=partialRectangle;connectable=0;fillColor=none;top=0;left=0;bottom=0;right=0;editable=1;overflow=hidden;" parent="rKwM3at-qu2hx9PtTfh6-66" vertex="1">
          <mxGeometry width="30" height="20" as="geometry" />
        </mxCell>
        <mxCell id="rKwM3at-qu2hx9PtTfh6-68" value="micro type" style="shape=partialRectangle;connectable=0;fillColor=none;top=0;left=0;bottom=0;right=0;align=left;spacingLeft=6;overflow=hidden;fontStyle=1;" parent="rKwM3at-qu2hx9PtTfh6-66" vertex="1">
          <mxGeometry x="30" width="130" height="20" as="geometry" />
        </mxCell>
        <mxCell id="m1BjPsNtlQlM0CQCzWrV-207" style="shape=partialRectangle;collapsible=0;dropTarget=0;pointerEvents=0;fillColor=none;top=0;left=0;bottom=0;right=0;points=[[0,0.5],[1,0.5]];portConstraint=eastwest;" parent="rKwM3at-qu2hx9PtTfh6-59" vertex="1">
          <mxGeometry y="100" width="160" height="20" as="geometry" />
        </mxCell>
        <mxCell id="m1BjPsNtlQlM0CQCzWrV-208" style="shape=partialRectangle;connectable=0;fillColor=none;top=0;left=0;bottom=0;right=0;editable=1;overflow=hidden;" parent="m1BjPsNtlQlM0CQCzWrV-207" vertex="1">
          <mxGeometry width="30" height="20" as="geometry" />
        </mxCell>
        <mxCell id="m1BjPsNtlQlM0CQCzWrV-209" value="project time" style="shape=partialRectangle;connectable=0;fillColor=none;top=0;left=0;bottom=0;right=0;align=left;spacingLeft=6;overflow=hidden;fontStyle=1;" parent="m1BjPsNtlQlM0CQCzWrV-207" vertex="1">
          <mxGeometry x="30" width="130" height="20" as="geometry" />
        </mxCell>
        <mxCell id="a4JJQ3hbmo9ORdKB5tDZ-30" style="shape=partialRectangle;collapsible=0;dropTarget=0;pointerEvents=0;fillColor=none;top=0;left=0;bottom=0;right=0;points=[[0,0.5],[1,0.5]];portConstraint=eastwest;" parent="rKwM3at-qu2hx9PtTfh6-59" vertex="1">
          <mxGeometry y="120" width="160" height="20" as="geometry" />
        </mxCell>
        <mxCell id="a4JJQ3hbmo9ORdKB5tDZ-31" value="FK" style="shape=partialRectangle;connectable=0;fillColor=none;top=0;left=0;bottom=0;right=0;editable=1;overflow=hidden;fontStyle=1;" parent="a4JJQ3hbmo9ORdKB5tDZ-30" vertex="1">
          <mxGeometry width="30" height="20" as="geometry" />
        </mxCell>
        <mxCell id="a4JJQ3hbmo9ORdKB5tDZ-32" value="ROOM_CODE" style="shape=partialRectangle;connectable=0;fillColor=none;top=0;left=0;bottom=0;right=0;align=left;spacingLeft=6;overflow=hidden;fontStyle=1;" parent="a4JJQ3hbmo9ORdKB5tDZ-30" vertex="1">
          <mxGeometry x="30" width="130" height="20" as="geometry" />
        </mxCell>
        <mxCell id="a4JJQ3hbmo9ORdKB5tDZ-16" value="room" style="shape=table;startSize=30;container=1;collapsible=1;childLayout=tableLayout;fixedRows=1;rowLines=0;fontStyle=1;align=center;resizeLast=1;fillColor=#CCCCCC;" parent="1" vertex="1">
          <mxGeometry x="95" y="960" width="180" height="70" as="geometry" />
        </mxCell>
        <mxCell id="a4JJQ3hbmo9ORdKB5tDZ-17" value="" style="shape=partialRectangle;collapsible=0;dropTarget=0;pointerEvents=0;fillColor=none;top=0;left=0;bottom=1;right=0;points=[[0,0.5],[1,0.5]];portConstraint=eastwest;" parent="a4JJQ3hbmo9ORdKB5tDZ-16" vertex="1">
          <mxGeometry y="30" width="180" height="30" as="geometry" />
        </mxCell>
        <mxCell id="a4JJQ3hbmo9ORdKB5tDZ-18" value="PK" style="shape=partialRectangle;connectable=0;fillColor=none;top=0;left=0;bottom=0;right=0;fontStyle=1;overflow=hidden;" parent="a4JJQ3hbmo9ORdKB5tDZ-17" vertex="1">
          <mxGeometry width="30" height="30" as="geometry" />
        </mxCell>
        <mxCell id="a4JJQ3hbmo9ORdKB5tDZ-19" value="ROOM_CODE" style="shape=partialRectangle;connectable=0;fillColor=none;top=0;left=0;bottom=0;right=0;align=left;spacingLeft=6;fontStyle=5;overflow=hidden;" parent="a4JJQ3hbmo9ORdKB5tDZ-17" vertex="1">
          <mxGeometry x="30" width="150" height="30" as="geometry" />
        </mxCell>
      </root>
    </mxGraphModel>
  </diagram>
  <diagram id="vcJv6lm3p_HRJLyNCDnN" name="Page-2">
    <mxGraphModel dx="1906" dy="947" grid="1" gridSize="10" guides="1" tooltips="1" connect="1" arrows="1" fold="1" page="1" pageScale="1" pageWidth="850" pageHeight="1100" math="0" shadow="0">
      <root>
        <mxCell id="L6DW1qHnyO12TrlGRM1J-0" />
        <mxCell id="L6DW1qHnyO12TrlGRM1J-1" parent="L6DW1qHnyO12TrlGRM1J-0" />
      </root>
    </mxGraphModel>
  </diagram>
</mxfile>
